<svg version="1.1" id="Layer_1" xmlns="http://www.w3.org/2000/svg" xmlns:xlink="http://www.w3.org/1999/xlink" x="0px" y="0px" enable-background="new 0 0 496 496" xml:space="preserve" viewBox="122.96 195.07 277.98 76.05"> <path fill="#000000" opacity="1.000000" stroke="none" d=" M139.700623,263.292908  	C134.565857,254.479797 129.740479,245.915421 124.586784,237.553375  	C122.376671,233.967407 122.444908,230.993195 124.609940,227.425415  	C130.138199,218.315262 135.432312,209.060333 140.677139,199.782501  	C142.311630,196.891205 144.257141,195.504150 147.781830,195.570541  	C159.272217,195.786972 170.770782,195.755066 182.262726,195.585083  	C185.528885,195.536774 187.416992,196.689774 189.000046,199.507004  	C194.547226,209.378906 200.282349,219.146317 206.039459,228.898300  	C207.445877,231.280594 207.684708,233.300919 206.173294,235.828140  	C200.362152,245.545029 194.650391,255.325272 189.124527,265.206604  	C187.343826,268.390839 185.109283,269.496490 181.518204,269.424713  	C171.027374,269.214996 160.519592,269.070923 150.039291,269.461151  	C145.058411,269.646606 141.663147,268.371582 139.700623,263.292908  z"></path> <path fill="#000000" opacity="1.000000" stroke="none" d=" M304.204407,265.764404  	C303.815643,269.394226 302.134308,270.655548 298.788483,270.362549  	C295.156830,270.044495 295.723358,267.487671 295.697937,265.262329  	C295.635193,259.772186 295.688751,254.280762 295.691223,248.789856  	C295.692108,246.818176 295.999634,244.972015 298.483582,244.900528  	C303.124634,244.767014 307.817535,244.211014 312.341309,245.778824  	C318.015533,247.745361 320.970673,254.504364 317.434753,259.019897  	C314.904541,262.251099 315.001282,264.350586 317.447632,267.081421  	C317.948120,267.640106 318.089264,268.520691 318.539642,269.595551  	C314.289185,270.969116 310.965973,270.914764 308.534363,266.796143  	C307.699768,265.382507 306.585022,263.236359 304.204407,265.764404  M305.222076,251.532349  	C302.839111,252.462631 303.468445,254.388809 303.756653,256.142670  	C303.955231,257.351257 304.952911,257.579651 305.999664,257.619415  	C308.159851,257.701477 310.300446,257.201874 310.391449,254.743912  	C310.494629,251.957123 308.240295,251.410095 305.222076,251.532349  z"></path> <path fill="#000000" opacity="1.000000" stroke="none" d=" M263.172363,269.204773  	C266.038330,261.782379 268.877869,254.686111 272.064941,247.749527  	C273.805969,243.960236 279.612549,243.287033 281.356964,246.750519  	C285.068604,254.119919 288.215027,261.773987 291.742889,269.645599  	C287.729462,270.599182 284.830444,271.223022 282.318878,267.653137  	C280.441925,264.985352 273.516937,265.077820 271.576019,267.747803  	C269.166443,271.062531 266.453278,270.801208 263.172363,269.204773  z"></path> <path fill="#000000" opacity="1.000000" stroke="none" d=" M325.406677,263.942566  	C324.074768,258.451355 324.871948,253.280121 324.708771,248.142639  	C324.623199,245.449417 326.278015,244.817871 328.581238,244.799438  	C330.992035,244.780151 332.360138,245.663452 332.316101,248.276291  	C332.265594,251.271072 332.306854,254.268127 332.351044,257.263580  	C332.396820,260.367737 332.509857,263.747650 336.720367,263.707581  	C340.712677,263.669586 340.655334,260.409882 340.670074,257.495697  	C340.685211,254.499802 340.750519,251.503021 340.698120,248.508286  	C340.648010,245.643051 342.195160,244.789001 344.790863,244.790726  	C347.356262,244.792419 348.378662,245.983063 348.337006,248.457474  	C348.280975,251.785263 348.365295,255.115158 348.338654,258.443726  	C348.282928,265.405640 345.884735,268.930542 340.201080,270.481995  	C333.643768,272.271942 329.078491,270.353271 325.406677,263.942566  z"></path> <path fill="#000000" opacity="1.000000" stroke="none" d=" M372.514160,245.739883  	C375.110291,247.211334 374.323730,248.874191 373.446747,250.604538  	C372.543640,252.386551 371.199554,252.121780 369.625122,251.721283  	C367.564240,251.197021 365.436432,250.743729 363.196381,252.014999  	C363.950500,254.453003 366.068359,254.447876 367.897003,254.931274  	C372.135773,256.051788 375.974091,257.712860 375.919006,262.989075  	C375.876862,267.030609 372.457764,269.842773 366.936737,270.873718  	C363.527924,271.510223 360.310486,270.671539 357.129852,269.703247  	C355.293213,269.144135 353.664856,268.194366 354.634491,265.732025  	C355.458252,263.640167 356.500000,262.436737 359.145508,263.336273  	C361.655151,264.189575 364.352142,265.833984 367.255096,263.562256  	C366.259155,260.602661 363.466339,261.064911 361.484161,260.440430  	C357.354095,259.139252 353.959961,257.345886 354.231689,252.334808  	C354.463074,248.067734 358.097626,245.025757 363.297028,244.735489  	C366.266998,244.569672 369.305939,244.286469 372.514160,245.739883  z"></path> <path fill="#000000" opacity="1.000000" stroke="none" d=" M249.843842,244.669373  	C252.346573,244.577942 254.260559,245.212952 255.985657,246.230148  	C257.578888,247.169617 260.329285,247.875168 258.903168,250.479568  	C257.723236,252.634476 256.021851,254.262650 252.793167,252.538712  	C247.917969,249.935699 243.669846,252.209976 243.299484,257.075867  	C242.894867,262.391785 247.030334,265.483429 252.216644,263.109253  	C255.457581,261.625641 257.780884,262.388916 258.845245,264.947357  	C260.216888,268.244415 256.745117,269.038025 254.644943,269.855042  	C248.935410,272.076233 243.474365,271.444244 238.889771,267.097443  	C234.976456,263.387146 233.814255,257.642151 235.870804,252.859436  	C238.415543,246.941360 243.106613,244.437119 249.843842,244.669373  z"></path> <path fill="#000000" opacity="1.000000" stroke="none" d=" M223.067139,197.378937  	C228.574417,194.692886 233.933487,195.332260 239.204437,197.037720  	C241.420898,197.754852 243.306839,200.006180 242.788223,201.957260  	C241.614746,206.371979 242.900253,210.132385 244.136948,214.160873  	C244.802567,216.329132 243.415436,218.356674 241.535110,219.723679  	C240.308044,220.615768 238.908173,221.079895 237.373978,221.269196  	C223.136063,223.026093 222.689911,222.655106 222.693893,208.302155  	C222.694870,204.807281 222.823196,201.312454 223.067139,197.378937  M226.801270,216.833481  	C230.340714,219.082626 234.175766,218.181793 237.794861,217.448502  	C240.191803,216.962860 241.485657,214.617355 239.787750,212.462372  	C236.836029,208.716049 232.408981,210.261841 228.643845,210.522202  	C225.153870,210.763535 226.602432,213.953171 226.801270,216.833481  M238.263840,201.181961  	C235.806747,198.207703 232.429520,199.358368 229.414886,199.406662  	C226.668411,199.450653 224.884354,203.839371 226.902298,205.691467  	C229.350906,207.938812 232.613403,206.782410 235.493439,206.547394  	C238.108612,206.333984 239.087616,204.459717 238.263840,201.181961  z"></path> <path fill="#000000" opacity="1.000000" stroke="none" d=" M373.843872,215.407043  	C368.926483,221.412094 361.847534,223.248077 355.931488,220.341125  	C350.586182,217.714615 347.665100,211.478851 349.083466,205.722305  	C350.964691,198.087097 358.882111,193.889481 366.655487,196.406082  	C374.456024,198.931488 377.361786,206.265396 373.843872,215.407043  M359.210938,217.674881  	C360.201782,217.784317 361.195343,218.007980 362.183044,217.984543  	C368.354706,217.838196 372.100922,213.760590 371.684296,207.709473  	C371.307190,202.232788 366.672333,198.642059 360.844391,199.366791  	C356.285706,199.933701 353.629578,202.790329 352.733185,207.037048  	C351.695984,211.951065 354.124573,215.315735 359.210938,217.674881  z"></path> <path fill="#000000" opacity="1.000000" stroke="none" d=" M297.195709,219.072632  	C293.191559,214.165039 289.444183,209.539261 285.305328,204.430206  	C282.729553,210.092133 286.166229,216.256836 281.868408,220.926208  	C280.438782,212.704529 280.514771,204.548737 281.069305,195.072006  	C288.860992,200.427795 292.163635,208.168060 298.832153,214.381882  	C298.832153,207.760666 298.832153,202.077789 298.832153,196.513641  	C302.198273,196.012939 302.190887,197.907120 302.205017,199.541397  	C302.256775,205.529388 302.304230,211.520203 302.172821,217.505981  	C302.084259,221.540665 300.495514,222.490753 297.195709,219.072632  z"></path> <path fill="#000000" opacity="1.000000" stroke="none" d=" M315.802185,200.765289  	C314.465851,205.683716 316.502808,207.030518 320.849792,206.846924  	C323.203918,206.747528 326.174347,205.545776 328.090759,208.703171  	C325.721527,211.351807 322.722626,210.136612 320.112701,210.215927  	C317.176941,210.305130 315.386566,210.895447 315.372833,214.371811  	C315.358856,217.912781 317.564209,217.764313 320.004364,217.990372  	C323.303711,218.295990 326.944550,216.821030 329.996429,219.533737  	C327.808167,221.168945 315.271454,222.080719 313.273346,220.911835  	C311.890594,220.102951 311.826660,218.753571 311.818054,217.433624  	C311.780121,211.604965 311.844574,205.775345 311.771576,199.947342  	C311.734741,197.006592 313.023163,195.670837 315.971191,195.734955  	C319.300323,195.807373 322.633698,195.687958 325.962738,195.763184  	C327.370605,195.794983 329.446838,195.502060 329.290192,197.683945  	C329.139038,199.789658 327.057220,199.111603 325.672882,199.301636  	C322.453522,199.743530 319.023560,198.346283 315.802185,200.765289  z"></path> <path fill="#000000" opacity="1.000000" stroke="none" d=" M253.495544,209.510864  	C255.300842,205.549957 256.901367,201.908386 258.652893,198.340958  	C259.779968,196.045410 261.821838,194.479935 263.371735,197.465454  	C267.227753,204.893265 270.559540,212.593246 273.677887,221.188690  	C265.321869,213.513550 257.354187,210.748962 249.424622,222.507523  	C249.207367,216.534897 251.952499,213.437729 253.495544,209.510864  M262.283234,203.014740  	C257.620667,204.035141 258.598083,207.977036 257.284363,211.238449  	C260.454254,211.746597 262.825928,212.151459 265.413361,210.917664  	C265.216553,208.077591 263.545288,205.932785 262.283234,203.014740  z"></path> <path fill="#000000" opacity="1.000000" stroke="none" d=" M220.935242,260.941406  	C220.956360,256.457275 220.969498,252.463837 221.005554,248.470596  	C221.030411,245.721375 222.517670,244.727005 225.165726,244.759644  	C227.768204,244.791733 229.278748,245.654190 229.256638,248.497253  	C229.210068,254.487396 229.199463,260.478485 229.254532,266.468475  	C229.279373,269.170593 228.147430,270.344452 225.380173,270.386322  	C222.510040,270.429749 220.932907,269.453735 220.978836,266.423798  	C221.004044,264.760529 220.953445,263.096069 220.935242,260.941406  z"></path> <path fill="#000000" opacity="1.000000" stroke="none" d=" M386.999298,218.629333  	C386.607361,220.296494 385.963593,221.278870 384.520905,220.915405  	C383.405884,220.634491 383.084900,219.554825 383.082123,218.535904  	C383.064484,212.050629 383.053772,205.564468 383.163055,199.080673  	C383.178314,198.176025 383.639526,197.047058 384.284607,196.429932  	C385.966980,194.820511 398.450256,195.778915 400.939575,197.681427  	C398.391418,200.601974 395.038055,199.088089 392.135620,199.226929  	C389.093445,199.372452 387.082611,199.707291 387.079895,203.548157  	C387.077148,207.445267 389.173950,207.743912 392.181702,207.782562  	C394.475555,207.812012 397.161682,206.830521 399.055359,209.287552  	C398.025024,212.126282 395.695679,211.181244 393.924133,211.236526  	C387.278656,211.443909 387.276672,211.379913 386.999298,218.629333  z"></path> </svg>