<?xml version="1.0" standalone="no"?>
<!DOCTYPE svg PUBLIC "-//W3C//DTD SVG 20010904//EN"
 "http://www.w3.org/TR/2001/REC-SVG-20010904/DTD/svg10.dtd">
<svg version="1.0" xmlns="http://www.w3.org/2000/svg"
 width="500.000000pt" height="500.000000pt" viewBox="0 0 500.000000 500.000000"
 preserveAspectRatio="xMidYMid meet">

<g transform="translate(0.000000,500.000000) scale(0.100000,-0.100000)"
fill="#000000" stroke="none">
<path d="M2283 4045 c-463 -72 -868 -367 -1073 -780 -62 -124 -113 -267 -124
-345 -5 -33 0 -24 18 35 117 385 380 697 734 874 386 193 863 192 1252 -4 350
-176 623 -505 724 -874 42 -154 51 -219 50 -391 -1 -235 -43 -424 -137 -612
l-42 -83 -727 -3 -728 -2 0 -60 0 -60 686 0 685 0 -23 -32 c-44 -64 -194 -211
-276 -273 -84 -63 -215 -137 -320 -180 -31 -13 -52 -24 -46 -25 20 0 187 70
259 110 152 84 347 247 430 359 24 33 36 41 63 41 31 0 32 1 32 44 0 33 10 61
40 112 76 130 132 285 167 459 26 134 24 405 -5 542 -105 493 -435 884 -899
1066 -223 87 -505 119 -740 82z"/>
<path d="M2520 3704 c-211 -27 -413 -102 -592 -220 -94 -63 -290 -258 -352
-353 -57 -86 -125 -221 -155 -307 -106 -305 -88 -697 44 -968 37 -75 37 -70 0
32 -56 151 -69 234 -70 437 0 151 4 206 19 270 63 272 175 477 365 666 210
210 453 332 745 375 298 44 653 -38 960 -222 l41 -25 -35 31 c-130 115 -352
220 -565 266 -68 15 -334 27 -405 18z"/>
<path d="M2545 3545 c-480 -88 -848 -444 -956 -925 -26 -114 -31 -333 -10
-450 44 -248 166 -476 352 -660 53 -52 111 -117 129 -144 53 -79 225 -290 295
-363 74 -78 75 -84 -19 126 -53 117 -60 128 -159 230 -167 173 -250 313 -312
527 -72 248 -74 553 -4 789 77 259 252 477 474 592 94 48 153 67 80 26 -238
-135 -403 -352 -470 -619 -84 -328 -47 -730 90 -1004 39 -78 142 -230 156
-230 3 0 -7 26 -23 58 -69 140 -74 301 -13 445 7 16 1 15 -44 -7 -28 -15 -51
-24 -51 -20 0 3 15 31 33 62 71 122 107 229 107 319 l0 42 -56 -56 c-30 -30
-57 -53 -60 -50 -3 3 6 25 20 49 30 51 50 135 66 272 22 190 70 321 162 442
93 124 263 231 443 278 l90 23 -53 12 c-29 6 -60 11 -68 11 -30 0 -2 19 54 37
45 14 89 17 212 17 175 -1 240 -13 418 -73 128 -43 129 -36 8 47 -142 99 -311
169 -474 197 -102 18 -320 18 -417 0z m-301 -2290 c8 -22 -4 -45 -24 -45 -10
0 -23 7 -30 15 -15 18 2 45 30 45 10 0 20 -7 24 -15z"/>
<path d="M1072 2850 c0 -14 2 -19 5 -12 2 6 2 18 0 25 -3 6 -5 1 -5 -13z"/>
<path d="M2270 2416 l0 -96 63 0 c72 0 107 18 107 55 0 13 -7 28 -16 33 -11 6
-13 11 -5 16 16 10 14 51 -4 66 -8 7 -44 15 -80 18 l-65 5 0 -97z m105 34 c0
-9 -11 -16 -27 -18 -23 -3 -28 1 -28 18 0 17 5 21 28 18 16 -2 27 -9 27 -18z
m4 -59 c21 -13 4 -31 -30 -31 -22 0 -29 5 -29 20 0 21 33 28 59 11z"/>
<path d="M2553 2498 c-5 -7 -26 -50 -46 -95 l-36 -83 28 0 c20 0 30 6 34 20 4
16 14 20 45 20 32 0 42 -4 47 -20 4 -14 15 -20 35 -20 l29 0 -42 93 c-32 67
-49 93 -63 95 -12 2 -25 -3 -31 -10z m42 -85 c5 -19 2 -23 -14 -23 -23 0 -24
3 -15 38 7 26 18 20 29 -15z"/>
<path d="M2727 2503 c-4 -3 -7 -46 -7 -95 l0 -88 29 0 c28 0 30 2 33 46 l3 46
34 -46 c24 -32 42 -46 58 -46 22 0 23 2 23 95 0 94 0 95 -24 95 -23 0 -25 -4
-28 -50 l-3 -51 -40 51 c-37 46 -62 60 -78 43z"/>
<path d="M2960 2415 l0 -95 75 0 c68 0 75 2 75 20 0 17 -7 20 -50 20 -37 0
-50 4 -50 14 0 10 14 16 42 18 31 2 44 8 46 20 3 13 -6 17 -40 20 -30 2 -43 7
-43 18 0 11 13 16 48 18 39 3 48 6 45 20 -3 14 -17 18 -76 20 l-72 3 0 -96z"/>
<path d="M3315 2501 c-46 -19 -70 -73 -53 -121 13 -38 48 -60 98 -60 75 0 124
77 90 141 -21 39 -88 59 -135 40z m75 -51 c25 -25 25 -41 1 -71 -16 -20 -23
-22 -47 -14 -39 14 -46 65 -12 89 29 20 34 20 58 -4z"/>
<path d="M3510 2415 c0 -95 0 -95 25 -95 21 0 25 5 25 29 0 28 3 30 42 33 31
2 44 8 46 20 3 13 -6 17 -40 20 -35 2 -43 7 -43 23 0 17 8 20 48 23 39 3 48 6
45 20 -3 14 -17 18 -76 20 l-72 3 0 -96z"/>
<path d="M2270 2046 l0 -96 25 0 26 0 -3 93 c-3 87 -4 92 -25 95 -22 3 -23 1
-23 -92z"/>
<path d="M2418 2125 c-88 -50 -49 -175 55 -175 31 0 49 6 61 19 17 19 17 20
-3 30 -13 7 -22 8 -26 1 -10 -17 -51 -11 -70 10 -37 41 7 100 61 80 21 -8 31
-8 41 3 12 12 12 16 -1 26 -24 20 -88 23 -118 6z"/>
<path d="M2620 2054 c-22 -47 -40 -90 -40 -95 0 -19 49 -9 55 11 5 16 15 20
47 20 31 0 41 -4 45 -20 4 -14 14 -20 34 -20 l29 0 -26 58 c-14 31 -33 74 -41
95 -12 28 -21 37 -40 37 -20 0 -30 -12 -63 -86z m79 -21 c1 -7 -8 -13 -19 -13
-23 0 -23 0 -9 37 10 26 12 27 19 8 5 -11 9 -26 9 -32z"/>
<path d="M2830 2045 c0 -95 0 -95 25 -95 20 0 25 5 25 25 0 15 6 25 15 25 8 0
22 -11 31 -25 11 -17 25 -25 46 -25 l29 0 -21 29 c-13 20 -17 32 -10 36 21 13
30 54 18 80 -12 28 -59 45 -120 45 l-38 0 0 -95z m108 23 c-2 -17 -11 -24 -30
-26 -24 -3 -28 0 -28 22 0 22 4 26 31 26 26 0 30 -3 27 -22z"/>
<path d="M3050 2067 c0 -92 18 -117 84 -117 66 0 86 27 86 118 0 70 -1 72 -25
72 -23 0 -24 -3 -27 -66 -2 -49 -7 -70 -20 -77 -31 -20 -48 8 -48 79 0 62 -1
64 -25 64 -24 0 -25 -2 -25 -73z"/>
<path d="M3298 2120 c-47 -36 -29 -79 40 -97 46 -12 39 -28 -13 -26 -31 1 -45
-3 -50 -15 -8 -22 12 -32 68 -32 54 0 90 27 85 63 -3 20 -20 32 -81 56 -40 16
-24 35 23 27 30 -5 39 -2 44 10 9 23 4 26 -46 31 -34 4 -49 0 -70 -17z"/>
<path d="M1506 1767 c3 -10 9 -15 12 -12 3 3 0 11 -7 18 -10 9 -11 8 -5 -6z"/>
</g>
</svg>
